<svg width="531" height="531" viewBox="0 0 531 531" fill="none" xmlns="http://www.w3.org/2000/svg">
<rect width="531" height="531" fill="#E98740"/>
<path fill-rule="evenodd" clip-rule="evenodd" d="M167.491 132.894C195.779 112.172 229.934 101 265 101V247.525H233.847V178H191.626V353.135H233.847V291H264.94H296.034V353.135H338.014V239.711L420.243 210.103C432.123 243.096 433.182 279.015 423.268 312.651C413.353 346.286 392.981 375.889 365.106 397.163C337.231 418.438 303.302 430.279 268.243 430.968C233.183 431.657 198.816 421.159 170.126 400.996C141.437 380.833 119.916 352.055 108.688 318.835C97.4593 285.615 97.1061 249.682 107.68 216.248C118.253 182.813 139.203 153.617 167.491 132.894ZM338.014 239.711V178H296.034V247.525H265V266L338.014 239.711Z" fill="white"/>
<path d="M265 101C308.43 101 350.108 118.123 380.995 148.653C411.882 179.184 429.486 220.662 429.989 264.088C430.492 307.515 413.854 349.389 383.683 380.627C353.511 411.866 312.241 429.949 268.823 430.956C225.405 431.962 183.341 415.81 151.755 386.003C120.169 356.195 101.609 315.137 100.1 271.734C98.5905 228.33 114.254 186.082 143.693 154.153C173.133 122.224 213.973 103.189 257.356 101.177L258.019 115.478C218.4 117.315 181.104 134.699 154.219 163.857C127.334 193.016 113.029 231.599 114.407 271.236C115.785 310.874 132.736 348.37 161.581 375.591C190.426 402.812 228.84 417.562 268.491 416.643C308.142 415.724 345.832 399.21 373.385 370.682C400.938 342.154 416.133 303.913 415.674 264.254C415.214 224.595 399.137 186.717 370.931 158.835C342.724 130.953 304.661 115.316 265 115.316L265 101Z" fill="white"/>
<path d="M338.014 239.711L265 266L265 247.525H296.034V178H338.014V239.711Z" fill="white"/>
</svg>
